# xmcd
#
# Track frame offsets: 
#        150
#        11550
#        24037
#        41323
#        59873
#        72922
#        88417
#        105165
#        120504
#        131813
#        144181
#        154773
#        167161
#        180480
#
# Disc length: 2586 seconds
#
# Revision: 1
# Processed by: cddbd v1.5.2PL0 Copyright (c) Steve Scherf et al.
# Submitted via: ExactAudioCopy v0.95b4
#
DISCID=b10a180e
DTITLE=Various Artist - Golden Pop Hits 1
DYEAR=2007
DGENRE=
TTITLE0=Popcorn - Hot Butter
TTITLE1=Mouldy Old Dough - Lieutenant Pigeon
TTITLE2=Verde - Ricky King
TTITLE3=Manuel Goodbye - Audrey Landers
TTITLE4=Rosetta - Georgie Fame and The Blue Flames
TTITLE5=Indian Reservation - Don Fardon
TTITLE6=Out Of Time - Chris Farlowe
TTITLE7=Deep Green - Phil Collins
TTITLE8=I Found My Freedom - Mac and Katie Kissoon
TTITLE9=Loop Di Love - Jay Bastos
TTITLE10=All I Have To Do Is Dream - The Everly Brothers
TTITLE11=Jingle Jangle - The Archies
TTITLE12=Ruby, Don't Take Your Love To Town - Kenny Rogers
TTITLE13=Cousin Norman - The Marmalade
EXTD=
EXTT0=
EXTT1=
EXTT2=
EXTT3=
EXTT4=
EXTT5=
EXTT6=
EXTT7=
EXTT8=
EXTT9=
EXTT10=
EXTT11=
EXTT12=
EXTT13=
PLAYORDER=
